<svg width="16" height="21" viewBox="0 0 16 21" fill="none" xmlns="http://www.w3.org/2000/svg">
<path d="M12 1.46973C12 1.33712 12.0527 1.20994 12.1464 1.11617C12.2402 1.02241 12.3674 0.969727 12.5 0.969727C12.6326 0.969727 12.7598 1.02241 12.8536 1.11617C12.9473 1.20994 13 1.33712 13 1.46973V3.96973H15.5C15.6326 3.96973 15.7598 4.02241 15.8536 4.11617C15.9473 4.20994 16 4.33712 16 4.46973C16 4.60233 15.9473 4.72951 15.8536 4.82328C15.7598 4.91705 15.6326 4.96973 15.5 4.96973H13V7.46973C13 7.60233 12.9473 7.72951 12.8536 7.82328C12.7598 7.91705 12.6326 7.96973 12.5 7.96973C12.3674 7.96973 12.2402 7.91705 12.1464 7.82328C12.0527 7.72951 12 7.60233 12 7.46973V4.96973H9.5C9.36739 4.96973 9.24021 4.91705 9.14645 4.82328C9.05268 4.72951 9 4.60233 9 4.46973C9 4.33712 9.05268 4.20994 9.14645 4.11617C9.24021 4.02241 9.36739 3.96973 9.5 3.96973H12V1.46973ZM1 5.96973C1 5.70451 1.10536 5.45016 1.29289 5.26262C1.48043 5.07508 1.73478 4.96973 2 4.96973H5.5C5.63261 4.96973 5.75979 4.91705 5.85355 4.82328C5.94732 4.72951 6 4.60233 6 4.46973C6 4.33712 5.94732 4.20994 5.85355 4.11617C5.75979 4.02241 5.63261 3.96973 5.5 3.96973H2C1.46957 3.96973 0.960859 4.18044 0.585786 4.55551C0.210714 4.93059 0 5.43929 0 5.96973V19.9697C0 20.0626 0.0258573 20.1536 0.0746746 20.2326C0.123492 20.3116 0.193341 20.3754 0.276393 20.4169C0.359446 20.4585 0.452422 20.476 0.544903 20.4677C0.637384 20.4594 0.725715 20.4254 0.8 20.3697L6.5 15.9697L12.2 20.3697C12.2743 20.4254 12.3626 20.4594 12.4551 20.4677C12.5476 20.476 12.6406 20.4585 12.7236 20.4169C12.8067 20.3754 12.8765 20.3116 12.9253 20.2326C12.9741 20.1536 13 20.0626 13 19.9697V11.4697C13 11.3371 12.9473 11.2099 12.8536 11.1162C12.7598 11.0224 12.6326 10.9697 12.5 10.9697C12.3674 10.9697 12.2402 11.0224 12.1464 11.1162C12.0527 11.2099 12 11.3371 12 11.4697V18.9497L6.8 14.9497C6.71345 14.8848 6.60819 14.8497 6.5 14.8497C6.39181 14.8497 6.28655 14.8848 6.2 14.9497L1 18.9497V5.96973Z" fill="#757575"/>
</svg>
