<svg width="16" height="21" viewBox="0 0 16 21" fill="none" xmlns="http://www.w3.org/2000/svg">
<path fill-rule="evenodd" clip-rule="evenodd" d="M11.22 4.39973C11.1897 4.45109 11.1488 4.4954 11.1 4.52973H11.11C11.0254 4.58887 10.923 4.61712 10.82 4.60973C10.7086 4.59978 10.6034 4.55419 10.52 4.47973L8.5 2.46973V9.53973C8.5 9.67233 8.44732 9.79951 8.35355 9.89328C8.25979 9.98705 8.13261 10.0397 8 10.0397C7.86739 10.0397 7.74021 9.98705 7.64645 9.89328C7.55268 9.79951 7.5 9.67233 7.5 9.53973V2.48973L5.5 4.48973C5.42432 4.56136 5.32612 4.60451 5.22216 4.6118C5.11821 4.6191 5.01495 4.59009 4.93 4.52973H4.91C4.86293 4.49454 4.82419 4.44942 4.79654 4.39757C4.76888 4.34572 4.753 4.28841 4.75 4.22973C4.74252 4.17233 4.74759 4.11399 4.76486 4.05874C4.78212 4.0035 4.81117 3.95265 4.85 3.90973L7.65 1.10973C7.74346 1.01811 7.86912 0.966797 8 0.966797C8.13088 0.966797 8.25654 1.01811 8.35 1.10973L11.15 3.90973C11.2143 3.97421 11.2559 4.05785 11.2685 4.14803C11.2811 4.23822 11.2641 4.33006 11.22 4.40973V4.39973ZM12 6.53973H13.5C14.0304 6.53973 14.5391 6.75044 14.9142 7.12551C15.2893 7.50058 15.5 8.00929 15.5 8.53973V18.5397C15.5 19.0702 15.2893 19.5789 14.9142 19.9539C14.5391 20.329 14.0304 20.5397 13.5 20.5397H2.5C1.96957 20.5397 1.46086 20.329 1.08579 19.9539C0.710714 19.5789 0.5 19.0702 0.5 18.5397V8.53973C0.5 8.00929 0.710714 7.50058 1.08579 7.12551C1.46086 6.75044 1.96957 6.53973 2.5 6.53973H4C4.13046 6.53894 4.25607 6.58918 4.35 6.67973C4.45 6.77973 4.5 6.89973 4.5 7.02973C4.49812 7.16161 4.44421 7.28741 4.35 7.37973C4.25769 7.47393 4.13188 7.52785 4 7.52973H2.4C1.9 7.52973 1.5 7.92973 1.5 8.42973V18.6297C1.5 18.8684 1.59482 19.0973 1.7636 19.2661C1.93239 19.4349 2.16131 19.5297 2.4 19.5297H13.6C14.1 19.5297 14.5 19.1297 14.5 18.6297V8.42973C14.5 7.92973 14.1 7.52973 13.6 7.52973H12C11.8674 7.52973 11.7402 7.47705 11.6464 7.38328C11.5527 7.28951 11.5 7.16233 11.5 7.02973C11.5 6.89712 11.5527 6.76994 11.6464 6.67617C11.7402 6.5824 11.8674 6.52973 12 6.52973V6.53973Z" fill="#757575"/>
</svg>
